<?xml version="1.0" encoding="UTF-8" standalone="no" ?>
<!DOCTYPE svg PUBLIC "-//W3C//DTD SVG 1.1//EN" "http://www.w3.org/Graphics/SVG/1.1/DTD/svg11.dtd">
<svg xmlns="http://www.w3.org/2000/svg" xmlns:xlink="http://www.w3.org/1999/xlink" version="1.1" width="150" height="150" viewBox="0 0 1024 1024" xml:space="preserve">
<desc>Created with Fabric.js 2.3.6</desc>
<defs>
</defs>
<rect x="-512" y="-512" rx="0" ry="0" width="1024" height="1024" style="stroke: none; stroke-width: 0; stroke-dasharray: none; stroke-linecap: butt; stroke-linejoin: miter; stroke-miterlimit: 4; fill: rgb(7,5,110); fill-rule: nonzero; opacity: 1;" transform="translate(512 512)"/>
<linearGradient id="SVGID_49480" gradientUnits="userSpaceOnUse" x1="7.063568715774345" y1="68.5340589829789" x2="133.1171116376475" y2="68.5340589829789">
<stop offset="0%" style="stop-color:rgb(248,54,0);stop-opacity: 1"/>
<stop offset="100%" style="stop-color:rgb(249,212,35);stop-opacity: 1"/>
</linearGradient>
<path id="icon-1" d="M 64.527 11.536 l 0.324 0.206 c 0.93 0.602 2.113 1.413 3.42 2.533 a 34.702 34.702 0 0 1 2.67 2.47 a 34.58 34.58 0 0 1 4.965 6.458 c 1.151 1.937 1.87 3.516 2.303 4.592 c 0.647 1.005 0.791 1.65 0.791 1.65 s -0.216 -0.574 -0.72 -1.65 c -0.415 -0.888 -0.978 -2.12 -1.81 -3.572 a 35.632 35.632 0 0 1 2.538 5.927 c 0.996 3.056 1.565 6.255 1.637 9.311 c 0.142 3.056 -0.214 5.828 -0.712 8.174 c -0.498 2.345 -1.28 4.193 -1.85 5.472 c -0.64 1.208 -1.138 1.848 -1.351 1.777 c -0.214 -0.142 -0.071 -0.853 0.284 -2.203 c 0.356 -1.28 0.854 -3.127 1.28 -5.402 c 0.428 -2.274 0.712 -4.904 0.641 -7.747 a 35.908 35.908 0 0 0 -1.352 -8.884 c -0.853 -2.985 -2.063 -5.828 -3.628 -8.387 a 34.245 34.245 0 0 0 -4.909 -6.468 a 35.681 35.681 0 0 0 -3.807 -3.43 a 35.425 35.425 0 0 0 -3.006 -1.787 A 34.296 34.296 0 0 0 49.86 6.773 a 36.423 36.423 0 0 0 -14.75 1.435 c -4.964 1.578 -9.857 4.448 -13.958 8.466 c -4.03 4.018 -7.267 9.184 -8.994 14.996 c -1.727 5.811 -1.8 11.838 -0.576 17.434 c 1.223 5.597 3.813 10.547 7.195 14.637 c 3.31 4.018 7.411 7.103 11.584 9.184 c 4.174 2.08 8.49 3.085 12.448 3.444 s 7.627 0 10.65 -0.718 a 31.903 31.903 0 0 0 7.698 -2.654 c 2.015 -0.933 3.454 -1.866 4.46 -2.512 c 1.008 -0.645 1.512 -1.004 1.512 -1.004 s -0.432 0.43 -1.44 1.148 c -0.934 0.717 -2.445 1.65 -4.46 2.655 c -2.015 1.004 -4.605 2.08 -7.699 2.798 c -3.094 0.717 -6.763 1.148 -10.793 0.79 c -4.03 -0.288 -8.418 -1.364 -12.663 -3.445 A 36.829 36.829 0 0 1 18.2 64.172 a 35.915 35.915 0 0 1 -4.461 -6.816 c -1.224 -2.512 -2.23 -5.166 -2.878 -8.036 c -1.296 -5.668 -1.152 -11.839 0.575 -17.794 c 1.727 -5.955 5.037 -11.193 9.138 -15.282 a 36.384 36.384 0 0 1 14.247 -8.61 C 39.93 5.984 45.11 5.697 49.788 6.27 c 4.748 0.574 8.994 2.009 12.52 3.946 a 38.39 38.39 0 0 1 2.22 1.319 z M 7.51 37.329 s 0.07 -0.924 0.355 -2.559 a 36.13 36.13 0 0 1 1.921 -7.107 a 38.904 38.904 0 0 1 5.62 -9.95 c 2.704 -3.483 6.475 -6.966 11.312 -9.667 a 39.346 39.346 0 0 1 7.897 -3.34 c 2.846 -0.853 5.905 -1.35 9.035 -1.493 c 3.13 -0.142 6.403 0.071 9.676 0.782 c 3.272 0.71 6.474 1.777 9.604 3.34 c 3.06 1.564 5.976 3.625 8.608 6.042 c 2.633 2.416 4.91 5.26 6.83 8.387 c 1.92 3.127 3.344 6.538 4.269 10.092 c 0.924 3.554 1.351 7.32 1.28 11.017 a 36.143 36.143 0 0 1 -1.92 10.945 c -1.139 3.554 -2.846 6.894 -4.91 9.88 a 39.584 39.584 0 0 1 -7.398 8.03 a 39.596 39.596 0 0 1 -9.036 5.544 c -3.201 1.422 -6.545 2.346 -9.888 2.843 c -3.344 0.498 -6.688 0.498 -9.818 0.143 c -3.202 -0.356 -6.26 -1.067 -9.106 -2.133 s -5.478 -2.345 -7.826 -3.909 c -4.696 -3.056 -8.253 -6.894 -10.814 -10.59 a 35.475 35.475 0 0 1 -4.909 -10.59 c -0.853 -3.127 -1.138 -5.686 -1.21 -7.392 c -0.07 -1.705 0.072 -2.63 0.214 -2.63 c 0.143 0 0.285 0.925 0.64 2.56 a 47.855 47.855 0 0 0 1.78 7.036 c 0.995 2.914 2.56 6.396 5.121 9.879 c 2.49 3.483 5.905 7.036 10.387 9.88 c 2.206 1.42 4.696 2.63 7.4 3.624 c 2.703 0.995 5.548 1.635 8.536 1.99 c 2.988 0.284 6.119 0.284 9.249 -0.142 c 3.13 -0.426 6.26 -1.35 9.32 -2.63 c 6.047 -2.63 11.596 -6.965 15.58 -12.65 c 1.992 -2.844 3.628 -5.971 4.695 -9.312 a 36.65 36.65 0 0 0 1.921 -10.376 a 37.256 37.256 0 0 0 -1.067 -10.52 a 35.996 35.996 0 0 0 -3.984 -9.665 a 39.71 39.71 0 0 0 -6.403 -8.103 a 38.533 38.533 0 0 0 -8.181 -5.9 a 36.731 36.731 0 0 0 -9.178 -3.41 a 38.631 38.631 0 0 0 -9.39 -0.925 c -3.06 0.071 -6.048 0.569 -8.822 1.35 c -2.775 0.783 -5.407 1.849 -7.755 3.128 a 37.445 37.445 0 0 0 -11.312 9.31 c -2.774 3.412 -4.624 6.824 -5.762 9.738 a 33.29 33.29 0 0 0 -2.063 7.036 c -0.356 1.493 -0.427 2.417 -0.498 2.417 z m 72.992 23.667 s -0.427 0.853 -1.28 2.346 a 38.603 38.603 0 0 1 -4.055 5.615 c -1.85 2.132 -4.34 4.477 -7.328 6.61 c -2.988 2.06 -6.474 3.909 -10.174 5.188 a 39.725 39.725 0 0 1 -11.311 2.132 c -3.7 0.142 -7.115 -0.213 -10.031 -0.853 c -2.846 -0.568 -5.194 -1.492 -6.759 -2.203 c -1.565 -0.71 -2.419 -1.35 -2.348 -1.492 c 0.071 -0.214 0.996 0.142 2.561 0.64 c 1.566 0.497 3.842 1.207 6.688 1.776 a 41.68 41.68 0 0 0 9.746 0.782 c 3.558 -0.071 7.4 -0.71 11.028 -1.848 c 3.628 -1.137 7.114 -2.772 10.102 -4.762 c 2.988 -1.919 5.478 -4.193 7.47 -6.255 c 1.992 -2.06 3.415 -3.98 4.34 -5.401 c 0.853 -1.422 1.351 -2.275 1.351 -2.275 z" style="stroke: none; stroke-width: 1; stroke-dasharray: none; stroke-linecap: butt; stroke-linejoin: miter; stroke-miterlimit: 4; fill: url(#SVGID_49480); fill-rule: nonzero; opacity: 1;" transform="translate(512 512) scale(10.204764 10.204764) translate(-45.49408047276182, -43.044778360024985) " stroke-linecap="round" />
<g id="icon-2" transform="translate(514.833756 510.019794) scale(1.511817 1.511817)" style="">
	<path d="M 167.148 68.167 a 13.021 13.021 0 0 0 13.846 -4.239 c 20.862 -24.384 2.3 -61.9 -16.264 -33.5 C 157.36 41.064 151.753 63.162 167.148 68.167 Z" style="stroke: none; stroke-width: 1; stroke-dasharray: none; stroke-linecap: butt; stroke-linejoin: miter; stroke-miterlimit: 4; fill: rgb(255,255,255); fill-rule: nonzero; opacity: 1;" transform="translate(-76.216816 -205.514761) translate(-173.78318392047578, -44.48523913254151) " stroke-linecap="round" />
	<path d="M 370.435 155.081 c 0.988 3.2 5.911 3.054 6.7 -0.2 c 0.022 -0.08 2.3 -8.063 10.885 -16.588 c 7.378 -7.2 14.708 -27.942 0.67 -33.241 C 370.649 99.221 361.242 132.058 370.435 155.081 Z" style="stroke: none; stroke-width: 1; stroke-dasharray: none; stroke-linecap: butt; stroke-linejoin: miter; stroke-miterlimit: 4; fill: rgb(255,255,255); fill-rule: nonzero; opacity: 1;" transform="translate(131.755225 -119.113447) translate(-381.7552247732155, -130.88655320941137) " stroke-linecap="round" />
	<path d="M 294.641 108.4 c 0.092 5.379 8.094 5.378 8.185 0 C 302.735 103.021 294.732 103.022 294.641 108.4 Z" style="stroke: none; stroke-width: 1; stroke-dasharray: none; stroke-linecap: butt; stroke-linejoin: miter; stroke-miterlimit: 4; fill: rgb(255,255,255); fill-rule: nonzero; opacity: 1;" transform="translate(48.7335 -141.6) translate(-298.73350000000005, -108.4) " stroke-linecap="round" />
	<path d="M 401.545 179.929 c 0.092 5.379 8.094 5.379 8.185 0 C 409.638 174.55 401.636 174.55 401.545 179.929 Z" style="stroke: none; stroke-width: 1; stroke-dasharray: none; stroke-linecap: butt; stroke-linejoin: miter; stroke-miterlimit: 4; fill: rgb(255,255,255); fill-rule: nonzero; opacity: 1;" transform="translate(155.6375 -70.071) translate(-405.63750000000005, -179.92900000000003) " stroke-linecap="round" />
	<path d="M 410.873 149.6 c -0.9 0.43 -22.227 10.852 -31.671 39.106 c -1.255 3.754 -2.429 7.1 -3.556 10.1 a 51.352 51.352 0 0 1 -26.3 32.544 a 3.75 3.75 0 0 1 -3.058 -6.848 a 40 40 0 0 0 11.039 -8.187 a 26.773 26.773 0 0 0 4.7 -30.737 c -12.267 -24.4 -31.444 -47.5 -18.638 -74.895 a 3.773 3.773 0 0 0 -4.535 -5.335 a 34.379 34.379 0 0 0 -22.22 26.554 c -1.462 8 1.061 21.7 -6.411 26.261 c -17.458 5.175 -20.971 -20.047 -17.154 -32.563 c 1.252 -4.863 -5.762 -6.921 -7.2 -2.1 a 48.851 48.851 0 0 0 -1.611 10.709 l -3.036 1.029 a 19.458 19.458 0 0 1 -3.482 -19 c 5.436 -15.11 18.054 -26.661 20.048 -26.866 c 4.11 -2.668 0.076 -8.941 -4.057 -6.311 a 61.1 61.1 0 0 0 -14.814 14.57 a 2.725 2.725 0 0 1 -4.843 -2.226 c 5.908 -26.473 29.487 -43.98 51.055 -46.385 c 22.521 -1.071 31.062 2.112 49.212 -15.03 c 7.557 -6.373 20.93 -18.46 30.642 -12.154 c 3.5 2.876 8.25 -2.193 5.066 -5.5 a 39.339 39.339 0 0 0 -40.944 -9.76 c -21.93 9.682 -24.981 18.578 -49.184 4.034 c -34.436 -23 -73.794 -0.159 -93.8 27.891 c -20.58 26.544 -34.275 61.765 -66.135 79.2 a 56.165 56.165 0 0 0 0.4 -23.812 a 3.774 3.774 0 0 0 -6.889 -1.2 c -11.867 19.337 -31.274 33.517 -46.531 50.812 c -9.3 10.462 -10.147 27.247 0.577 37.559 c 3.708 3.4 -1.058 8.963 -4.9 5.683 c -7.152 -6.466 -9.836 -14.56 -10.331 -22.33 c -0.024 0.048 -0.051 0.093 -0.075 0.141 C 90.419 140.89 107.536 112.388 107.774 112 c 2.493 -4.21 -3.752 -8.091 -6.4 -3.907 c -1.149 1.88 -22.256 37.011 -15.536 64.476 c 1.831 6.967 -2.434 14.014 -3.332 20.639 c -8.662 -15.6 -5.974 -40.809 -2.188 -50.314 c 1.618 -4.646 -5.26 -7.19 -7.041 -2.588 c -4.4 10.905 -7.056 38.234 2.175 55.433 a 33.244 33.244 0 0 1 3.093 16.445 c -1.532 24.507 5.076 47.649 20.71 66.838 c -5.717 4.028 -7.344 11.222 -5.607 17.764 c 1.331 7.353 7.842 11.4 14.791 12.966 c -0.675 13.576 0.4 24.118 3.383 32.662 c -15.981 2.623 -13.4 23.628 0.87 26.815 c 7.447 22.7 34.268 50.83 64.66 60.2 c 2.92 7.4 10.949 21.111 31.365 27.359 v 8.75 c -8.957 3.249 -22.082 12.4 -21.7 29.638 a 3.749 3.749 0 0 0 3.749 3.654 h 83.5 a 3.748 3.748 0 0 0 3.748 -3.654 c 0.383 -17.237 -12.742 -26.389 -21.7 -29.638 v -8.767 c 20.64 -6.344 28.6 -20.319 31.364 -27.335 c 30.64 -9.453 57.324 -37.786 64.66 -60.209 c 14.734 -3.357 16.681 -24.95 0.12 -26.946 a 100.548 100.548 0 0 0 4.072 -32.511 c 6.969 -1.571 13.518 -5.6 14.853 -12.982 c 2.774 -9.182 -2.8 -19.345 -12.556 -20.616 a 93.528 93.528 0 0 0 7.719 -16.575 l 0.023 -0.034 c 3.086 -8.343 3.824 -19.32 17.974 -26.544 c 23.451 -9.946 21.747 -36.836 21.663 -37.976 c -0.449 -4.871 -7.735 -4.389 -7.48 0.542 c 0.063 0.924 1.345 22.7 -17.111 30.53 a 31.854 31.854 0 0 0 -9.65 6.591 c 0.2 -4.974 -0.151 -9.908 2.733 -14.181 c 3.984 -6.416 7.446 -14.964 11.614 -27.437 c 8.391 -25.105 27.6 -34.622 27.791 -34.715 a 3.75 3.75 0 0 0 -3.233 -6.768 Z m -266.8 51.465 c 1.862 35.4 47.344 36.795 42.039 -1.67 c -1.533 -8.884 -5.948 -17 -7.521 -25.625 c -4.959 -26.326 19.462 -50.832 42.443 -63.2 c -40.67 82.271 35.721 91.248 37.169 48.126 c 12.443 8.055 18.451 26.741 11.154 40.4 c -2.947 5.787 -7.312 10.869 -8.036 17.83 c -1.018 9.669 6.4 19.4 16.537 21.682 c 14.911 3.443 30 -8.675 34.12 -23.6 c 12.532 22.159 8.907 48.95 -6.9 68.112 c -29.343 2.738 -98.928 3.336 -131.253 1.015 c -19.368 -2.617 -25.663 -14.193 -27.74 -18.358 C 133.871 246.458 133.559 221.138 144.07 201.068 Z M 121.965 371.9 l 0.368 0.089 l 1.106 2.972 C 122.932 373.955 122.434 372.938 121.965 371.9 Z m 119.627 58.413 c -48.878 3.545 -99.037 -16.133 -118.119 -55.282 c 0.337 0.112 78.252 25.887 154.29 20.118 C 272.987 423.571 251.442 429.228 241.592 430.316 Z m 37.861 -58.338 c -74.243 3.907 -174.66 -1.791 -171.13 -17.377 c 0.1 -4.443 4.429 -5.331 8.758 -4.842 c 53.452 7.33 138.093 8.76 196.572 3.511 C 309.282 367.383 289.9 371.04 279.453 371.978 Z M 137.229 336.694 c 7.53 1.972 8.646 -7.676 0.847 -7.451 c -7.217 -0.772 -5.92 -9.756 -5.494 -14.444 c 5.471 0.854 11.238 1.621 17.134 2.309 V 345.62 c -11.864 -0.948 -22.172 -2 -29.784 -3.037 c -3.3 -7.7 -4.617 -17.594 -4.079 -30.922 c 2.923 0.669 6.043 1.3 9.318 1.894 C 123.8 323.478 124.713 334.781 137.229 336.694 Z m 29.438 -9.28 c 0.17 7.169 5.166 12.964 11.619 13.481 c 2.862 0.438 5.831 0.262 6.3 -3.257 a 3.749 3.749 0 0 0 -3.438 -4.037 c -8.586 0.379 -7.017 -8.378 -6.811 -14.075 c 5.159 0.425 10.228 0.8 15.094 1.126 v 27.4 c -11.183 -0.494 -22.128 -1.136 -32.217 -1.865 V 317.936 c 3.21 0.335 6.434 0.648 9.647 0.941 C 166.714 321.144 166.59 324.167 166.667 327.414 Z m 41.373 9.472 c 2.811 3.458 13.923 7.4 14.5 0.453 a 3.75 3.75 0 0 0 -3.75 -3.75 c -7.34 0.215 -7.669 -6.176 -6.852 -11.64 c 7.653 0.37 13.7 0.592 17.216 0.708 v 26.412 c -10.465 -0.045 -21.385 -0.3 -32.217 -0.708 V 321.132 c 2.593 0.157 5.1 0.3 7.5 0.431 C 203.776 326.672 203.862 333.013 208.04 336.886 Z m 36.429 -9.585 c 0.115 8.273 6.281 15 13.746 15 c 2.946 0.186 5.933 -0.114 6.147 -3.75 c -0.2 -3.621 -3.213 -3.944 -6.147 -3.75 c -6.262 -0.284 -6.663 -7.792 -6.161 -12.806 c 4.972 -0.236 10.664 -0.537 16.814 -0.914 v 27.248 c -10.817 0.414 -21.739 0.677 -32.218 0.733 V 322.631 c 2 -0.068 4.672 -0.165 7.882 -0.3 C 244.477 323.736 244.443 325.418 244.469 327.3 Z m 46.476 -15.355 c -72.659 4.5 -45.255 4.489 -118.777 -0.162 a 3.548 3.548 0 0 0 -1.8 -0.156 c -13.865 -1.211 -28.051 -2.789 -40.267 -4.828 c -9.6 -1.6 -17.975 -3.485 -24 -5.7 a 7.928 7.928 0 0 1 -5.108 -5.833 c -2.174 -6.344 2.413 -13.172 9.368 -11.541 c 14.225 3.493 49.01 9.352 122.157 9.352 c 41.276 0 70.333 -1.866 90.377 -4.119 C 321.015 307.67 297.239 311.312 290.945 311.946 Z" style="stroke: none; stroke-width: 1; stroke-dasharray: none; stroke-linecap: butt; stroke-linejoin: miter; stroke-miterlimit: 4; fill: rgb(255,255,255); fill-rule: nonzero; opacity: 1;" transform="translate(-7.255534 0.002035) translate(-242.7444662372993, -250.00203507511034) " stroke-linecap="round" />
	<path d="M 422.564 33.373 c 0.092 5.379 8.094 5.378 8.185 0 C 430.658 27.993 422.655 27.994 422.564 33.373 Z" style="stroke: none; stroke-width: 1; stroke-dasharray: none; stroke-linecap: butt; stroke-linejoin: miter; stroke-miterlimit: 4; fill: rgb(255,255,255); fill-rule: nonzero; opacity: 1;" transform="translate(176.6565 -216.627375) translate(-426.65650000000005, -33.3726250000008) " stroke-linecap="round" />
	<path d="M 86.782 120.879 c -0.091 -5.379 -8.094 -5.379 -8.185 0 C 78.689 126.259 86.691 126.258 86.782 120.879 Z" style="stroke: none; stroke-width: 1; stroke-dasharray: none; stroke-linecap: butt; stroke-linejoin: miter; stroke-miterlimit: 4; fill: rgb(255,255,255); fill-rule: nonzero; opacity: 1;" transform="translate(-167.3105 -129.120812) translate(-82.6895, -120.87918750435682) " stroke-linecap="round" />
</g>
</svg>